<svg width="32" height="32" viewBox="0 0 32 32" fill="none" xmlns="http://www.w3.org/2000/svg">
<path d="M26.6667 2.66667H5.34669C3.88002 2.66667 2.68002 3.86667 2.68002 5.33334L2.66669 26.1067C2.66669 27.2933 4.10669 27.8933 4.94669 27.0533L8.00002 24H26.6667C28.1334 24 29.3334 22.8 29.3334 21.3333V5.33334C29.3334 3.86667 28.1334 2.66667 26.6667 2.66667ZM16 8.00001C17.4667 8.00001 18.6667 9.20001 18.6667 10.6667C18.6667 12.1333 17.4667 13.3333 16 13.3333C14.5334 13.3333 13.3334 12.1333 13.3334 10.6667C13.3334 9.20001 14.5334 8.00001 16 8.00001ZM21.3334 18.6667H10.6667V17.9067C10.6667 16.8267 11.3067 15.8667 12.2934 15.44C13.4625 14.9298 14.7244 14.6664 16 14.6664C17.2757 14.6664 18.5375 14.9298 19.7067 15.44C20.1897 15.6465 20.6015 15.9904 20.8907 16.4289C21.1799 16.8675 21.3338 17.3813 21.3334 17.9067V18.6667Z" fill="#1E000E"/>
</svg>
