<svg width="125" height="75" viewBox="0 0 125 75" fill="none" xmlns="http://www.w3.org/2000/svg">
<g style="mix-blend-mode:color-burn">
<g style="mix-blend-mode:lighten">
<g style="mix-blend-mode:soft-light">
<path d="M25.0344 47.9903C24.1354 47.9923 23.2583 47.7137 22.5252 47.1935C21.7921 46.6732 21.2396 45.9371 20.9448 45.0879L19.2943 40.0156C18.9051 38.8321 18.2424 37.757 17.3601 36.8774C16.479 35.9926 15.4038 35.3253 14.2198 34.9286L9.21006 33.299C8.57058 33.0844 7.99007 32.7233 7.51478 32.2447C7.03949 31.766 6.68255 31.183 6.47241 30.542C6.26226 29.901 6.20471 29.2198 6.30435 28.5527C6.40399 27.8855 6.65806 27.2509 7.04632 26.6993C7.56378 25.9606 8.29825 25.4015 9.14955 25.101L14.2386 23.4526C15.3809 23.0494 16.4171 22.393 17.2699 21.5327C18.1226 20.6724 18.7697 19.6304 19.1629 18.4846L20.8279 13.3642C21.12 12.4941 21.6834 11.7409 22.4345 11.213C23.1704 10.7042 24.0438 10.4317 24.9384 10.4317C25.833 10.4317 26.7064 10.7042 27.4422 11.213C28.1725 11.7284 28.7234 12.4566 29.0197 13.2995L30.6785 18.3907C31.0714 19.5708 31.7343 20.6429 32.6146 21.5217C33.4948 22.4005 34.568 23.0617 35.7487 23.4526L40.7669 25.0801C41.6766 25.3702 42.4674 25.946 43.0245 26.7222C43.5415 27.4521 43.8191 28.3244 43.8191 29.2188C43.8191 30.1132 43.5415 30.9855 43.0245 31.7153C42.5091 32.4456 41.7809 32.9985 40.938 33.299L35.8406 34.9557C34.6634 35.3461 33.5943 36.0072 32.7191 36.8858C31.8407 37.7684 31.1751 38.8429 30.7807 40.0239L29.1532 45.0358C28.8459 45.8979 28.2878 46.6485 27.5507 47.1912C26.8163 47.7128 25.9358 47.9945 25.0344 47.9903ZM49.0421 66.7692C48.2908 66.772 47.5573 66.5404 46.9438 66.1065C46.3304 65.6726 45.8677 65.0582 45.6202 64.3488L44.4767 60.8517C44.2435 60.1331 43.8439 59.4797 43.3104 58.9447C42.7738 58.4103 42.1212 58.0068 41.4033 57.7658L37.9542 56.6495C37.2229 56.4002 36.5895 55.9253 36.1452 55.2932C35.8186 54.8361 35.6031 54.3092 35.5158 53.7543C35.4284 53.1994 35.4716 52.6318 35.6419 52.0965C35.8123 51.5612 36.105 51.073 36.497 50.6706C36.889 50.2683 37.3693 49.9628 37.9 49.7785L41.4074 48.6351C42.1093 48.3877 42.745 47.9825 43.2655 47.4508C43.7861 46.919 44.1776 46.2748 44.41 45.5679L45.5263 42.1251C45.7037 41.5864 46.0053 41.0971 46.4069 40.6966C46.8085 40.2962 47.2986 39.9959 47.8377 39.8199C48.3769 39.644 48.9498 39.5975 49.5103 39.684C50.0708 39.7705 50.603 39.9878 51.0639 40.3181C51.6795 40.75 52.1427 41.3656 52.3868 42.075L53.5261 45.572C53.7664 46.286 54.1693 46.9343 54.703 47.4658C55.2368 47.9974 55.8867 48.3977 56.6016 48.6351L60.0548 49.7618C60.7826 49.9876 61.4203 50.4377 61.8769 51.0478C62.3335 51.6578 62.5856 52.3965 62.5972 53.1584C62.6088 53.9203 62.3792 54.6664 61.9414 55.29C61.5035 55.9136 60.8797 56.3828 60.1592 56.6307L56.6684 57.7699C55.9525 58.005 55.3021 58.4053 54.7696 58.9384C54.2373 59.4742 53.8354 60.1253 53.5949 60.8413L52.4724 64.2841C52.2214 65.014 51.7468 65.6462 51.1161 66.091C50.5113 66.5256 49.7868 66.7625 49.0421 66.7692Z" fill="#F7C325"/>
</g>
</g>
<g style="mix-blend-mode:lighten">
<path d="M89.6388 47.1834C88.6623 50.7889 87.6858 54.6949 87.6107 55.7465C87.6107 56.8733 86.4839 58 85.2821 58H69.9586C68.7567 58 67.7051 56.8733 67.63 55.7465C67.4046 51.7654 61.1701 28.7801 58.0152 23.3718C57.1889 22.3202 57.6396 20.9681 58.8415 20.9681C64.2498 20.9681 68.6065 20.9681 74.0148 20.9681C75.2166 20.9681 76.3434 22.17 76.3434 23.2216C76.4936 26.3764 75.8927 29.0806 78.3715 36.8175C78.5217 37.193 78.9724 37.4184 79.348 37.4184C79.7236 37.4184 80.0991 37.193 80.2494 36.8175C82.8033 29.0806 82.1273 26.3764 82.2775 23.2216C82.3526 22.17 83.4042 20.9681 84.6812 20.9681C88.5872 20.9681 92.4932 20.9681 96.3992 20.9681C97.6761 20.9681 98.7278 22.17 98.8029 23.2216C98.9531 26.3764 98.2771 29.0806 100.831 36.8175C100.981 37.193 101.357 37.4184 101.732 37.4184C102.183 37.4184 102.559 37.193 102.709 36.8175C105.188 29.0806 104.587 26.3764 104.737 23.2216C104.737 22.17 105.864 20.9681 107.066 20.9681C112.474 20.9681 116.831 20.9681 122.239 20.9681C123.441 20.9681 123.891 22.3202 123.14 23.3718C119.91 28.7801 113.676 51.7654 113.45 55.7465C113.375 56.8733 112.324 58 111.122 58H95.7983C94.5964 58 93.5448 56.8733 93.4697 55.7465C93.3946 54.6949 92.4181 50.7889 91.5167 47.1834C91.2162 46.282 89.8641 46.282 89.6388 47.1834Z" fill="#F7C325"/>
</g>
</g>
</svg>
