<svg width="183" height="36" viewBox="0 0 183 36" fill="none" xmlns="http://www.w3.org/2000/svg">
<path d="M11.998 23C11.5672 23.0009 11.1468 22.8674 10.7954 22.6181C10.4441 22.3687 10.1793 22.016 10.038 21.609L9.247 19.178C9.06045 18.6108 8.74287 18.0955 8.32 17.674C7.89774 17.2499 7.38244 16.9301 6.815 16.74L4.414 15.959C4.10752 15.8561 3.8293 15.6831 3.60151 15.4537C3.37372 15.2243 3.20266 14.9449 3.10194 14.6377C3.00123 14.3305 2.97365 14.004 3.0214 13.6843C3.06915 13.3645 3.19092 13.0604 3.377 12.796C3.625 12.442 3.977 12.174 4.385 12.03L6.824 11.24C7.37143 11.0467 7.86808 10.7322 8.27676 10.3199C8.68545 9.90754 8.9956 9.40813 9.184 8.859L9.982 6.405C10.122 5.988 10.392 5.627 10.752 5.374C11.1047 5.13016 11.5232 4.99954 11.952 4.99954C12.3808 4.99954 12.7993 5.13016 13.152 5.374C13.502 5.621 13.766 5.97 13.908 6.374L14.703 8.814C14.8913 9.37959 15.209 9.89341 15.6309 10.3146C16.0528 10.7357 16.5671 11.0526 17.133 11.24L19.538 12.02C19.974 12.159 20.353 12.435 20.62 12.807C20.8678 13.1568 21.0008 13.5749 21.0008 14.0035C21.0008 14.4321 20.8678 14.8502 20.62 15.2C20.373 15.55 20.024 15.815 19.62 15.959L17.177 16.753C16.6129 16.9401 16.1005 17.2569 15.681 17.678C15.26 18.101 14.941 18.616 14.752 19.182L13.972 21.584C13.8247 21.9972 13.5573 22.3569 13.204 22.617C12.852 22.867 12.43 23.002 11.998 23ZM23.504 32C23.1439 32.0014 22.7924 31.8904 22.4984 31.6824C22.2044 31.4745 21.9826 31.18 21.864 30.84L21.316 29.164C21.2042 28.8196 21.0127 28.5064 20.757 28.25C20.4998 27.9939 20.1871 27.8005 19.843 27.685L18.19 27.15C17.8395 27.0305 17.5359 26.8029 17.323 26.5C17.1665 26.2809 17.0632 26.0284 17.0213 25.7625C16.9795 25.4965 17.0002 25.2245 17.0818 24.968C17.1634 24.7114 17.3037 24.4774 17.4916 24.2846C17.6795 24.0917 17.9097 23.9453 18.164 23.857L19.845 23.309C20.1814 23.1905 20.486 22.9963 20.7355 22.7414C20.985 22.4865 21.1726 22.1778 21.284 21.839L21.819 20.189C21.904 19.9308 22.0486 19.6963 22.2411 19.5044C22.4335 19.3125 22.6684 19.1686 22.9268 19.0842C23.1852 18.9999 23.4598 18.9776 23.7284 19.0191C23.997 19.0606 24.2521 19.1647 24.473 19.323C24.768 19.53 24.99 19.825 25.107 20.165L25.653 21.841C25.7682 22.1832 25.9613 22.4939 26.2171 22.7486C26.4729 23.0034 26.7844 23.1952 27.127 23.309L28.782 23.849C29.1308 23.9572 29.4364 24.173 29.6553 24.4653C29.8741 24.7577 29.9949 25.1117 30.0005 25.4769C30.006 25.842 29.896 26.1996 29.6861 26.4985C29.4763 26.7973 29.1773 27.0222 28.832 27.141L27.159 27.687C26.8159 27.7996 26.5042 27.9915 26.249 28.247C25.9939 28.5038 25.8012 28.8158 25.686 29.159L25.148 30.809C25.0277 31.1588 24.8003 31.4618 24.498 31.675C24.2081 31.8833 23.8609 31.9968 23.504 32Z" fill="#FAFAFA"/>
<path d="M47.48 22.816C47.012 24.544 46.544 26.416 46.508 26.92C46.508 27.46 45.968 28 45.392 28H38.048C37.472 28 36.968 27.46 36.932 26.92C36.824 25.012 33.836 13.996 32.324 11.404C31.928 10.9 32.144 10.252 32.72 10.252C35.312 10.252 37.4 10.252 39.992 10.252C40.568 10.252 41.108 10.828 41.108 11.332C41.18 12.844 40.892 14.14 42.08 17.848C42.152 18.028 42.368 18.136 42.548 18.136C42.728 18.136 42.908 18.028 42.98 17.848C44.204 14.14 43.88 12.844 43.952 11.332C43.988 10.828 44.492 10.252 45.104 10.252C46.976 10.252 48.848 10.252 50.72 10.252C51.332 10.252 51.836 10.828 51.872 11.332C51.944 12.844 51.62 14.14 52.844 17.848C52.916 18.028 53.096 18.136 53.276 18.136C53.492 18.136 53.672 18.028 53.744 17.848C54.932 14.14 54.644 12.844 54.716 11.332C54.716 10.828 55.256 10.252 55.832 10.252C58.424 10.252 60.512 10.252 63.104 10.252C63.68 10.252 63.896 10.9 63.536 11.404C61.988 13.996 59 25.012 58.892 26.92C58.856 27.46 58.352 28 57.776 28H50.432C49.856 28 49.352 27.46 49.316 26.92C49.28 26.416 48.812 24.544 48.38 22.816C48.236 22.384 47.588 22.384 47.48 22.816ZM75.4496 27.208V17.452C75.4496 15.94 74.4776 15.364 73.1816 15.364V27.208C73.1816 27.676 72.8216 28 72.3896 28H64.8656C64.2896 28 63.9656 27.46 64.1456 26.92C64.5776 25.588 64.7216 23.932 64.7216 22.384V8.452C64.7216 6.904 64.5776 5.248 64.1456 3.916C63.9656 3.376 64.2896 2.8 64.8656 2.8H73.0016C73.5776 2.8 73.9016 3.376 73.7576 3.916C73.3256 5.248 73.1816 6.904 73.1816 8.452V13.564C73.9736 11.584 76.3496 10.252 78.0416 10.252C81.1376 10.252 83.9096 12.664 83.9096 16.768V22.384C83.9096 23.932 84.0536 25.588 84.4856 26.92C84.6656 27.46 84.3416 28 83.7656 28H76.2416C75.8096 28 75.4496 27.676 75.4496 27.208ZM85.7918 11.332C85.6118 10.828 85.9358 10.252 86.5118 10.252C89.2478 10.252 91.9478 10.252 94.6478 10.252C95.2598 10.252 95.5838 10.828 95.4038 11.332C94.9718 12.7 94.8278 14.356 94.8278 15.904V22.384C94.8278 23.932 94.9718 25.588 95.4038 26.92C95.5838 27.46 95.2598 28 94.6838 28C91.9478 28 89.2478 28 86.5118 28C85.9358 28 85.6118 27.46 85.7918 26.92C86.2238 25.588 86.3678 23.932 86.3678 22.384V15.904C86.3678 14.356 86.2238 12.7 85.7918 11.332ZM90.5798 2.8C96.2318 2.8 96.2318 9.316 90.5798 9.316C84.9638 9.316 84.9638 2.8 90.5798 2.8ZM97.0686 22.24V8.452C97.0686 6.904 96.9246 5.248 96.4926 3.916C96.3126 3.376 96.6366 2.8 97.2126 2.8H105.349C105.961 2.8 106.285 3.376 106.105 3.916C105.673 5.248 105.529 6.904 105.529 8.452V10.252H108.049C108.481 10.252 108.841 10.612 108.841 11.044V14.608C108.841 15.04 108.481 15.4 108.049 15.4H105.529V22.384C105.529 23.932 105.673 25.588 106.105 26.92C106.285 27.46 105.961 28 105.385 28H102.073C99.2286 27.604 97.0686 25.156 97.0686 22.24ZM119.18 28C105.752 28 105.752 10.252 119.18 10.252C129.944 10.252 130.16 21.088 120.944 21.556C120.656 21.592 120.62 21.952 120.944 22.096C121.844 22.456 122.888 22.672 124.112 22.672C125.3 22.672 126.308 22.456 127.208 22.132L128.072 23.572C126.524 26.128 123.572 28 119.18 28ZM117.2 15.112C116.948 16.372 117.056 17.74 117.596 18.964C118.172 20.224 119.108 20.224 119.684 19C120.26 17.776 120.44 15.976 120.116 14.752C119.54 12.664 117.704 12.988 117.2 15.112ZM138.715 28C125.287 28 125.287 10.252 138.715 10.252C149.479 10.252 149.695 21.088 140.479 21.556C140.191 21.592 140.155 21.952 140.479 22.096C141.379 22.456 142.423 22.672 143.647 22.672C144.835 22.672 145.843 22.456 146.743 22.132L147.607 23.572C146.059 26.128 143.107 28 138.715 28ZM136.735 15.112C136.483 16.372 136.591 17.74 137.131 18.964C137.707 20.224 138.643 20.224 139.219 19C139.795 17.776 139.975 15.976 139.651 14.752C139.075 12.664 137.239 12.988 136.735 15.112ZM148.643 22.24V8.452C148.643 6.904 148.499 5.248 148.067 3.916C147.887 3.376 148.211 2.8 148.787 2.8H156.923C157.535 2.8 157.859 3.376 157.679 3.916C157.247 5.248 157.103 6.904 157.103 8.452V10.252H159.623C160.055 10.252 160.415 10.612 160.415 11.044V14.608C160.415 15.04 160.055 15.4 159.623 15.4H157.103V22.384C157.103 23.932 157.247 25.588 157.679 26.92C157.859 27.46 157.535 28 156.959 28H153.647C150.803 27.604 148.643 25.156 148.643 22.24ZM172.411 27.208V17.452C172.411 15.94 171.439 15.364 170.143 15.364V27.208C170.143 27.676 169.783 28 169.351 28H161.827C161.25 28 160.927 27.46 161.107 26.92C161.539 25.588 161.683 23.932 161.683 22.384V8.452C161.683 6.904 161.539 5.248 161.107 3.916C160.927 3.376 161.25 2.8 161.827 2.8H169.963C170.539 2.8 170.863 3.376 170.719 3.916C170.287 5.248 170.143 6.904 170.143 8.452V13.564C170.935 11.584 173.311 10.252 175.003 10.252C178.099 10.252 180.871 12.664 180.871 16.768V22.384C180.871 23.932 181.015 25.588 181.447 26.92C181.627 27.46 181.303 28 180.727 28H173.203C172.771 28 172.411 27.676 172.411 27.208Z" fill="#FAFAFA"/>
</svg>
